<svg width="200" height="200" viewBox="0 0 200 200" xmlns="http://www.w3.org/2000/svg">
  <!-- Enterprise/ITAR Compliance Version -->
  <defs>
    <linearGradient id="enterpriseGrad" x1="0%" y1="0%" x2="100%" y2="100%">
      <stop offset="0%" style="stop-color:#1E3A8A;stop-opacity:1" />
      <stop offset="50%" style="stop-color:#0F172A;stop-opacity:1" />
      <stop offset="100%" style="stop-color:#020617;stop-opacity:1" />
    </linearGradient>
    <radialGradient id="glowGrad">
      <stop offset="0%" style="stop-color:#F59E0B;stop-opacity:0.3" />
      <stop offset="100%" style="stop-color:#F59E0B;stop-opacity:0" />
    </radialGradient>
  </defs>
  
  <!-- Background circle -->
  <circle cx="100" cy="100" r="95" fill="url(#enterpriseGrad)"/>
  
  <!-- Security glow -->
  <circle cx="100" cy="100" r="70" fill="url(#glowGrad)"/>
  
  <!-- Military-grade vault - strongest design -->
  <path d="M 100 30 L 150 50 L 150 115 Q 150 150 100 170 Q 50 150 50 115 L 50 50 Z" 
        fill="none" stroke="#F59E0B" stroke-width="5"/>
  <path d="M 100 35 L 145 52 L 145 115 Q 145 145 100 163 Q 55 145 55 115 L 55 52 Z" 
        fill="none" stroke="#F59E0B" stroke-width="2" opacity="0.5"/>
  
  <!-- Complex neural network - enterprise intelligence -->
  <circle cx="100" cy="60" r="7" fill="#F59E0B"/>
  <circle cx="70" cy="80" r="6" fill="#F59E0B" opacity="0.9"/>
  <circle cx="100" cy="80" r="6" fill="#F59E0B" opacity="0.9"/>
  <circle cx="130" cy="80" r="6" fill="#F59E0B" opacity="0.9"/>
  <circle cx="60" cy="100" r="5" fill="#F59E0B" opacity="0.8"/>
  <circle cx="80" cy="100" r="5" fill="#F59E0B" opacity="0.8"/>
  <circle cx="100" cy="100" r="6" fill="#F59E0B" opacity="0.9"/>
  <circle cx="120" cy="100" r="5" fill="#F59E0B" opacity="0.8"/>
  <circle cx="140" cy="100" r="5" fill="#F59E0B" opacity="0.8"/>
  <circle cx="70" cy="120" r="4" fill="#F59E0B" opacity="0.7"/>
  <circle cx="100" cy="120" r="5" fill="#F59E0B" opacity="0.8"/>
  <circle cx="130" cy="120" r="4" fill="#F59E0B" opacity="0.7"/>
  
  <!-- Dense connection mesh -->
  <g stroke="#F59E0B" stroke-width="1.5" opacity="0.4">
    <line x1="100" y1="60" x2="70" y2="80"/>
    <line x1="100" y1="60" x2="100" y2="80"/>
    <line x1="100" y1="60" x2="130" y2="80"/>
    <line x1="70" y1="80" x2="60" y2="100"/>
    <line x1="70" y1="80" x2="80" y2="100"/>
    <line x1="100" y1="80" x2="80" y2="100"/>
    <line x1="100" y1="80" x2="100" y2="100"/>
    <line x1="100" y1="80" x2="120" y2="100"/>
    <line x1="130" y1="80" x2="120" y2="100"/>
    <line x1="130" y1="80" x2="140" y2="100"/>
    <line x1="80" y1="100" x2="70" y2="120"/>
    <line x1="100" y1="100" x2="70" y2="120"/>
    <line x1="100" y1="100" x2="100" y2="120"/>
    <line x1="100" y1="100" x2="130" y2="120"/>
    <line x1="120" y1="100" x2="130" y2="120"/>
  </g>
  
  <!-- Military-grade lock -->
  <rect x="90" y="128" width="20" height="24" rx="2" fill="#F59E0B"/>
  <circle cx="100" cy="122" r="10" fill="none" stroke="#F59E0B" stroke-width="4"/>
  <circle cx="100" cy="140" r="3" fill="#020617"/>
  <rect x="99" y="143" width="2" height="6" fill="#020617"/>
  
  <!-- ITAR compliance badge -->
  <circle cx="130" cy="150" r="12" fill="#F59E0B" opacity="0.9"/>
  <text x="130" y="154" font-family="Arial, sans-serif" font-size="12" font-weight="bold" 
        fill="#020617" text-anchor="middle">✓</text>
  
  <!-- Text label -->
  <text x="100" y="190" font-family="Arial, sans-serif" font-size="14" font-weight="bold" 
        fill="white" text-anchor="middle">ENTERPRISE</text>
</svg>
