<svg width="200" height="200" viewBox="0 0 200 200" xmlns="http://www.w3.org/2000/svg">
  <!-- Enterprise: Maximum Convergence Command Center -->
  <defs>
    <linearGradient id="enterpriseGrad" x1="0%" y1="0%" x2="100%" y2="100%">
      <stop offset="0%" style="stop-color:#1E3A8A;stop-opacity:1" />
      <stop offset="50%" style="stop-color:#0F172A;stop-opacity:1" />
      <stop offset="100%" style="stop-color:#020617;stop-opacity:1" />
    </linearGradient>
    <radialGradient id="coreGlowEnt">
      <stop offset="0%" style="stop-color:#F59E0B;stop-opacity:1" />
      <stop offset="50%" style="stop-color:#F59E0B;stop-opacity:0.4" />
      <stop offset="100%" style="stop-color:#F59E0B;stop-opacity:0" />
    </radialGradient>
  </defs>
  
  <!-- Background circle -->
  <circle cx="100" cy="100" r="95" fill="url(#enterpriseGrad)"/>
  
  <!-- Command center glow - most intense -->
  <circle cx="100" cy="100" r="60" fill="url(#coreGlowEnt)"/>
  
  <!-- Outer data nodes - 16 for maximum enterprise complexity -->
  <g opacity="0.9">
    <circle cx="100" cy="20" r="6" fill="#F59E0B"/>
    <circle cx="138" cy="27" r="5" fill="#F59E0B"/>
    <circle cx="162" cy="50" r="6" fill="#F59E0B"/>
    <circle cx="173" cy="73" r="5" fill="#F59E0B"/>
    <circle cx="180" cy="100" r="6" fill="#F59E0B"/>
    <circle cx="173" cy="127" r="5" fill="#F59E0B"/>
    <circle cx="162" cy="150" r="6" fill="#F59E0B"/>
    <circle cx="138" cy="173" r="5" fill="#F59E0B"/>
    <circle cx="100" cy="180" r="6" fill="#F59E0B"/>
    <circle cx="62" cy="173" r="5" fill="#F59E0B"/>
    <circle cx="38" cy="150" r="6" fill="#F59E0B"/>
    <circle cx="27" cy="127" r="5" fill="#F59E0B"/>
    <circle cx="20" cy="100" r="6" fill="#F59E0B"/>
    <circle cx="27" cy="73" r="5" fill="#F59E0B"/>
    <circle cx="38" cy="50" r="6" fill="#F59E0B"/>
    <circle cx="62" cy="27" r="5" fill="#F59E0B"/>
  </g>
  
  <!-- All pathways converge to central cortex -->
  <g stroke="#F59E0B" stroke-width="3" opacity="0.6">
    <line x1="100" y1="20" x2="100" y2="65"/>
    <line x1="138" y1="27" x2="115" y2="75"/>
    <line x1="162" y1="50" x2="125" y2="82"/>
    <line x1="173" y1="73" x2="128" y2="92"/>
    <line x1="180" y1="100" x2="135" y2="100"/>
    <line x1="173" y1="127" x2="128" y2="108"/>
    <line x1="162" y1="150" x2="125" y2="118"/>
    <line x1="138" y1="173" x2="115" y2="125"/>
    <line x1="100" y1="180" x2="100" y2="135"/>
    <line x1="62" y1="173" x2="85" y2="125"/>
    <line x1="38" y1="150" x2="75" y2="118"/>
    <line x1="27" y1="127" x2="72" y2="108"/>
    <line x1="20" y1="100" x2="65" y2="100"/>
    <line x1="27" y1="73" x2="72" y2="92"/>
    <line x1="38" y1="50" x2="75" y2="82"/>
    <line x1="62" y1="27" x2="85" y2="75"/>
  </g>
  
  <!-- Enterprise cortex - multiple security layers -->
  <circle cx="100" cy="100" r="35" fill="none" stroke="#F59E0B" stroke-width="5"/>
  <circle cx="100" cy="100" r="27" fill="none" stroke="#F59E0B" stroke-width="3" opacity="0.8"/>
  <circle cx="100" cy="100" r="20" fill="none" stroke="#F59E0B" stroke-width="2" opacity="0.6"/>
  <circle cx="100" cy="100" r="14" fill="none" stroke="#F59E0B" stroke-width="1.5" opacity="0.4"/>
  
  <!-- Secure command core -->
  <circle cx="100" cy="100" r="10" fill="#F59E0B"/>
  <path d="M 96 98 L 96 94 Q 96 90 100 90 Q 104 90 104 94 L 104 98" 
        fill="none" stroke="#020617" stroke-width="2"/>
  <rect x="94" y="98" width="12" height="6" rx="1" fill="#020617"/>
  <circle cx="100" cy="101" r="1" fill="#F59E0B"/>
  
  <!-- ITAR badge -->
  <circle cx="135" cy="65" r="10" fill="#F59E0B"/>
  <text x="135" y="69" font-family="monospace" font-size="10" font-weight="bold" 
        fill="#020617" text-anchor="middle">✓</text>
  
  <!-- Text label -->
  <text x="100" y="190" font-family="Arial, sans-serif" font-size="12" font-weight="bold" 
        fill="white" text-anchor="middle" letter-spacing="1.5">ENTERPRISE</text>
</svg>
