<svg xmlns="http://www.w3.org/2000/svg" viewBox="0 0 24 24" fill="#0085FF">
  <path d="M12 0C5.373 0 0 5.373 0 12s5.373 12 12 12 12-5.373 12-12S18.627 0 12 0zm5.608 12.273c-.107 2.773-1.334 4.454-3.391 4.637-1.224.107-2.156-.387-2.773-1.471l-.879 2.091c-.176.352-.422.633-.738.844-.316.21-.69.316-1.121.316-.457 0-.861-.141-1.213-.423a2.28 2.28 0 01-.773-1.078l-1.828-5.168c-.281-.774-.211-1.429.211-1.963.422-.535 1.072-.803 1.951-.803.773 0 1.371.238 1.793.715.422.476.633 1.107.633 1.893 0 .105-.007.234-.021.387l-.844 4.008c-.105.598-.07 1.078.105 1.441.176.363.492.545.949.545.563 0 1.037-.246 1.424-.738.386-.493.598-1.205.633-2.137l.105-2.813c.035-.949-.105-1.635-.422-2.059-.316-.422-.879-.633-1.687-.633-.281 0-.598.053-.949.158l-.387.141v-1.898c.281-.105.598-.176.949-.211.352-.035.703-.053 1.055-.053 1.406 0 2.461.316 3.164.949.703.633 1.055 1.564 1.055 2.791 0 .035-.007.141-.021.316z"/>
</svg>
