<svg xmlns="http://www.w3.org/2000/svg" viewBox="0 0 24 24" fill="currentColor">
  <path d="M21.327 8.566c0-4.339-3.488-7.827-7.827-7.827-1.484 0-2.835.414-3.996 1.134-.385-.632-.767-1.261-1.164-1.879-.104-.161-.313-.223-.497-.152-.183.07-.289.274-.254.477.062.356.129.709.197 1.062.065.337.134.674.204 1.011.05.244-.085.486-.322.576-.063.025-.12.062-.179.098C5.616 4.215 4.22 6.604 4.22 9.313c0 2.417 1.098 4.596 2.817 6.053.032.028.068.053.105.076.019.014.032.032.05.046.047.035.096.064.149.088.022.011.043.023.068.031.034.011.07.015.106.023.025.006.047.016.072.019.051.006.104 0 .157-.006.026-.003.052-.003.078-.009.059-.014.117-.036.173-.062.028-.013.055-.024.081-.04.051-.033.097-.074.14-.118.023-.022.045-.043.066-.067.034-.04.064-.086.09-.132.014-.027.026-.054.037-.082.021-.053.034-.107.041-.162.003-.027.009-.053.009-.08.002-.05-.002-.102-.01-.151-.006-.032-.014-.062-.023-.093-.008-.022-.01-.046-.018-.068l-.007-.021c-.157-.52-.31-1.036-.463-1.554-.03-.102-.059-.204-.089-.306-.042-.146.04-.299.184-.341.146-.042.299.04.341.184.05.171.101.343.152.514.13.433.26.868.388 1.304.074.252.15.504.225.756.093.314.186.628.279.942.003.007.004.015.006.023.005.016.008.031.011.047.006.022.009.045.013.067.002.011.006.021.007.032.003.021.003.042.004.063 0 .011.002.021.002.032 0 .02-.002.038-.004.058-.001.013-.001.027-.003.04-.004.025-.01.05-.017.074-.004.015-.006.031-.011.047-.006.019-.014.038-.023.057-.006.014-.01.028-.017.041-.009.018-.02.035-.031.053-.008.013-.015.026-.023.038-.012.017-.026.032-.04.048-.01.012-.018.024-.028.035-.013.015-.028.028-.043.042-.012.01-.021.022-.033.031-.015.013-.031.024-.047.035-.013.008-.024.017-.037.024-.017.01-.035.018-.053.027-.014.007-.027.014-.042.02-.018.008-.038.013-.057.019-.015.005-.029.011-.044.015-.02.005-.041.008-.062.012-.016.003-.031.007-.047.009-.023.003-.046.003-.069.005-.016.001-.031.004-.047.004-.024 0-.049-.002-.073-.004-.017-.002-.033-.001-.05-.004-.023-.004-.045-.009-.068-.015-.017-.005-.034-.007-.051-.012-.021-.007-.042-.016-.063-.025-.018-.008-.036-.013-.054-.022-.019-.01-.038-.021-.056-.032-.018-.011-.035-.02-.052-.032-.018-.012-.034-.026-.051-.04-.016-.013-.033-.024-.048-.038-.016-.015-.031-.032-.046-.048-.015-.016-.03-.031-.044-.048-.014-.018-.027-.037-.04-.056-.012-.018-.025-.035-.036-.054-.012-.021-.022-.043-.032-.065-.01-.02-.02-.039-.029-.059-.009-.023-.016-.047-.023-.071-.007-.021-.015-.041-.021-.062-.007-.025-.012-.05-.017-.075-.005-.022-.01-.043-.014-.065-.004-.027-.007-.054-.009-.082-.002-.022-.005-.043-.006-.065-.001-.029 0-.058-.001-.087 0-.021-.001-.041 0-.062.002-.031.006-.061.01-.092.003-.021.006-.042.01-.063.005-.028.012-.056.019-.084.006-.022.012-.044.019-.066.008-.027.018-.054.028-.081.009-.023.018-.046.028-.068.011-.026.024-.051.037-.076.011-.022.023-.043.036-.064.014-.024.029-.047.045-.07.014-.021.028-.042.043-.062.017-.023.035-.045.053-.067.017-.02.034-.039.052-.058.02-.021.041-.041.063-.061.02-.018.04-.036.061-.053.023-.019.047-.037.071-.055.023-.017.045-.034.069-.049.025-.017.051-.033.078-.048.026-.015.051-.03.077-.044.028-.014.056-.028.084-.041.028-.013.056-.026.084-.038.03-.012.06-.023.09-.034.03-.011.06-.022.091-.031.032-.01.064-.018.097-.026.032-.008.064-.016.097-.023.034-.007.068-.013.102-.018.034-.005.068-.01.103-.014.036-.004.072-.007.108-.009.036-.002.072-.004.108-.004.037 0 .073.002.109.004.036.002.072.005.108.009.035.004.069.009.103.014.034.005.068.011.102.018.033.007.065.015.097.023.033.008.065.016.097.026.031.009.061.02.091.031.03.011.06.022.09.034.028.012.056.025.084.038.028.013.056.027.084.041.026.014.052.029.077.044.027.015.053.031.078.048.024.015.046.032.069.049.024.018.048.036.071.055.021.017.041.035.061.053.022.02.043.04.063.061.018.019.035.038.052.058.018.022.036.044.053.067.015.02.029.041.043.062.016.023.031.046.045.07.013.021.025.042.036.064.013.025.026.05.037.076.01.022.019.045.028.068.01.027.02.054.028.081.007.022.013.044.019.066.007.028.014.056.019.084.004.021.007.042.01.063.004.031.008.061.01.092.001.021 0 .041 0 .062 0 .029 0 .058-.001.087-.001.022-.004.043-.006.065-.002.028-.005.055-.009.082-.004.022-.009.043-.014.065-.005.025-.01.05-.017.075-.006.021-.014.041-.021.062-.007.024-.014.048-.023.071-.009.02-.019.039-.029.059-.01.022-.02.044-.032.065-.011.019-.024.036-.036.054-.013.019-.026.038-.04.056-.014.017-.029.032-.044.048-.015.016-.03.033-.046.048-.015.014-.032.025-.048.038-.017.014-.033.028-.051.04-.017.012-.034.021-.052.032-.018.011-.037.022-.056.032-.018.009-.036.014-.054.022-.021.009-.042.018-.063.025-.017.005-.034.007-.051.012-.023.006-.045.011-.068.015-.017.003-.033.002-.05.004-.024.002-.049.004-.073.004-.016 0-.031-.003-.047-.004-.023-.002-.046-.002-.069-.005-.016-.002-.031-.006-.047-.009-.021-.004-.042-.007-.062-.012-.015-.004-.029-.01-.044-.015-.019-.006-.039-.011-.057-.019-.015-.006-.028-.013-.042-.02-.018-.009-.036-.017-.053-.027-.013-.007-.024-.016-.037-.024-.016-.011-.032-.022-.047-.035-.012-.009-.021-.021-.033-.031-.015-.014-.03-.027-.043-.042-.01-.011-.018-.023-.028-.035-.014-.016-.028-.031-.04-.048-.008-.012-.015-.025-.023-.038-.011-.018-.022-.035-.031-.053-.009-.014-.015-.027-.023-.041-.009-.019-.017-.038-.023-.057-.005-.016-.007-.032-.011-.047-.007-.024-.013-.049-.017-.074-.002-.013-.002-.027-.003-.04-.002-.02-.004-.038-.004-.058 0-.011.002-.021.002-.032 0-.021.001-.042.004-.063.001-.011.005-.021.007-.032.004-.022.007-.045.013-.067.003-.016.006-.031.011-.047.003-.008.004-.016.006-.023.093-.314.186-.628.279-.942.075-.252.151-.504.225-.756.128-.436.258-.871.388-1.304.051-.171.102-.343.152-.514.042-.144.195-.226.341-.184.146.042.227.195.185.341-.03.102-.059.204-.089.306-.153.518-.306 1.034-.463 1.554l-.007.021c-.008.022-.01.046-.018.068-.009.031-.017.061-.023.093-.008.049-.012.101-.01.151 0 .027.006.053.009.08.007.055.02.109.041.162.011.028.023.055.037.082.026.046.056.092.09.132.021.024.043.045.066.067.043.044.089.085.14.118.026.016.053.027.081.04.056.026.114.048.173.062.026.006.052.006.078.009.053.006.106.012.157.006.025-.003.047-.013.072-.019.036-.008.072-.012.106-.023.025-.008.046-.02.068-.031.053-.024.102-.053.149-.088.018-.014.031-.032.05-.046.037-.023.073-.048.105-.076 1.719-1.457 2.817-3.636 2.817-6.053 0-2.709-1.396-5.098-3.499-6.247-.059-.036-.116-.073-.179-.098-.237-.09-.372-.332-.322-.576.07-.337.139-.674.204-1.011.068-.353.135-.706.197-1.062.035-.203-.071-.407-.254-.477-.184-.071-.393-.009-.497.152-.397.618-.779 1.247-1.164 1.879-1.161-.72-2.512-1.134-3.996-1.134-4.339 0-7.827 3.488-7.827 7.827z"/>
</svg>
