<svg xmlns="http://www.w3.org/2000/svg" viewBox="0 0 24 24" fill="#1AB7EA">
  <path d="M23.977 6.416c-.105 2.338-1.382 5.238-4.357 8.211-3.057 3.071-5.642 4.607-7.753 4.607-1.31 0-2.417-.681-3.319-2.044-.916-2.511-1.833-5.023-2.75-7.534-.916-1.363-1.9-2.044-2.952-2.044-.458 0-1.054.213-1.785.638L0 6.627c.815-.719 1.619-1.439 2.41-2.16 1.089-.971 1.906-1.48 2.454-1.54 1.297-.104 2.097.76 2.402 2.595.329 1.986.558 3.22.688 3.702.393 1.734.822 2.6 1.286 2.6.36 0 .901-.573 1.624-1.717.723-1.145 1.11-2.016 1.161-2.614.105-.999-.285-1.499-1.167-1.499-.414 0-.84.093-1.278.278.849-2.774 2.475-4.126 4.878-4.055 1.778.042 2.617 1.198 2.521 3.467z"/>
</svg>
